<?xml version="1.0" encoding="UTF-8"?>
<svg id="Layer_2" data-name="Layer 2" xmlns="http://www.w3.org/2000/svg" viewBox="0 0 189.69 17.73">
  <defs>
    <style>
      .cls-1 {
        fill: #4fa2db;
      }
    </style>
  </defs>
  <g id="Layer_1-2" data-name="Layer 1">
    <path class="cls-1" d="M185.35,5.78c-1.64-.98-3.14-2.17-4.7-3.43-.3-.24-3.23-2.87-3.61-1.74-.37,1.1.77,2.34,1.85,3.13l3.75,2.75c.13.09-.32.77-.5.81l-8.08,1.55c-4.2.8-8.05,1.61-12.22,1.62-2.47,0-5.05-.04-7.47-.51l-4.68-.91c-2.72-.53-5.49-.92-8.1-1.72-4.02-1.22-7.82-2.82-11.95-3.63-2.98-.58-6.12-.99-9.14-1.18l-8.03-.52c-1.88-.12-4.26-.07-6.13.31l-12.27,2.51-10.83,2.13c-4.84.95-14.97.64-19.89-.29l-10.49-1.99-10.67-2.18C30.14.04,32.43-.09,19.46.03c-2.02.02-4.31.28-6.17.9l-4.73,1.57C5.14,3.63,3.81,5.4,0,6.86l1.37.84.53.04c4.56-2.77,8.92-4.97,14.67-5.6,11.71-1.27,13.91-.13,24.96,2.15l16.39,3.39,7.73,1.36c1.67.29,3.55.34,5.34.44,8.92.5,13.07-.39,21.52-2.2l5.71-1.22,7.85-1.57c2.6-.52,5.29-.56,7.9-.36l7.08.53c13.81,1.03,14.67,3.97,24.42,5.73l6.77,1.22c7.84,1.42,11.86,1.49,20.06-.05l11.28-2.11c.22-.04,1.26.62,1.19.66l-2.45,1.81c-2.46,1.82-4.54,3.59-6.69,5.74,1.39.21,2.75-.03,3.61-.68l4.88-3.68,5.51-4.18.05-.75-4.34-2.59Z"/>
  </g>
</svg>