<?xml version="1.0" encoding="UTF-8"?>
<svg id="Layer_2" data-name="Layer 2" xmlns="http://www.w3.org/2000/svg" viewBox="0 0 160.66 11.54">
  <defs>
    <style>
      .cls-1 {
        fill: #f4c146;
      }
    </style>
  </defs>
  <g id="Layer_1-2" data-name="Layer 1">
    <path class="cls-1" d="M35.98,7.46c-5.17,3.02-9.81,5.9-14.53,1.97-2.1-1.75-9.13-6.84-11.3-7.06-1.38-.14-3.88.91-4.84,1.97l-3.67,4.02c-.23.25-.87.49-1.13.56C-1.98,9.64,4.96-2.34,13.17,1.88c1.59.82,3.35,1.68,4.7,2.67l5.91,4.36c.95.7,3.71.86,4.75.37,5.89-2.73,7.74-4.79,13.59-7.35,3.41-1.49,9.19,3.02,11.65,4.97,2.31,1.83,5.06,4.38,8.18,1.37,1.83-1.77,3.6-3.19,5.89-4.42,6.14-3.29,10.3-.25,16.02,2.78,2.91,1.54,5.25,4.4,10.92-.3l5.06-4.2c3.89-3.22,9.12-1.5,12.92,1.33l4.89,3.63c2.18,1.61,4.99.72,6.7-.97,3.9-3.83,4.54-4.76,9.85-6.03.79-.19,2.83-.11,3.55.31l6.33,3.75c3.59,2.13,5.86,3.39,9.75,2.22,4.33-1.3,3.34-4.56,6.22-3.43,2.37.93-2.83,4.57-3.12,4.72-1.8.91-4.47,1.42-6.46,1.42-8.35.02-14.26-12.02-22.05-3.71-3.16,3.37-6.51,5.88-11.09,4.03-6.69-2.7-2.42-2.21-9.03-5.96-4.49-2.55-7.83.74-10.75,3.36-4,3.59-9.01,5.95-13.95,2.36-3.28-2.37-9.76-6.43-13.69-4.27-4.41,2.42-7.15,5.72-8.94,6.31-2.54.85-5.13-.12-7.03-1.55l-5.52-4.14c-2.24-1.68-4.79-2.54-7.54-.94l-4.89,2.86Z"/>
  </g>
</svg>