<?xml version="1.0" encoding="UTF-8"?>
<svg id="Layer_1" xmlns="http://www.w3.org/2000/svg" version="1.1" viewBox="0 0 100 100">
  <!-- Generator: Adobe Illustrator 30.2.1, SVG Export Plug-In . SVG Version: 2.1.1 Build 1)  -->
  <defs>
    <style>
      .st0 {
        fill: #0d3023;
      }
    </style>
  </defs>
  <path class="st0" d="M98.22,83.3l-.83-1.06c-9.78-14.73-14.68-38.29-14.73-38.53l-.07-.35c-.04-.18-.04-.27-.21-.34l-.46-.2c-18.83-7.49-31.01-15.62-38.32-25.6,0,0-.4-.53-.71-.94-.1-.13-.37-.19-.51,0l-.7.89c-6.53,7.74-17.09,14.86-24.65,18.49l-.58.33-.09.58c-.48,2.99-4.96,29.66-14,45.75l-.65,1.1c-.19.3-.11.41.19.4h2.27c.19,0,.2-.07.29-.23,3.79-6.75,7.25-16.04,10.24-27.54,2.26-8.67,3.57-16.06,3.97-18.46,8.87-4.35,17.95-11.08,23.89-17.69,7.59,9.72,19.65,17.66,37.86,24.97.76,3.42,5.8,24.97,14.94,38.74.1.15.14.25.32.25h2.39c.34,0,.47-.18.16-.54Z"/>
  <path class="st0" d="M74.04,52.69c.19,0,.38,0,.57,0,.08,0,.14-.07.14-.14,0-1.16-.02-2.32-.03-3.48,0-.08-.07-.14-.14-.14-1.46,0-2.91,0-4.37,0-2.32,0-4.64,0-6.96,0-.53,0-1.05,0-1.58,0-.04,0-.07.02-.09.04,0,0,0,0,0,0,0,0,0,0-.01.01-.02.02-.03.05-.03.09,0,1.16-.02,2.31-.02,3.47,0,.08.07.14.14.14,1.34.01,2.68.03,4.02.04.14,0,.29,0,.43,0,0,1.72,0,3.44,0,5.16,0,2.82,0,5.64,0,8.46,0,.65,0,1.3,0,1.95,0,.08.07.14.14.14,1.26-.01,2.51-.03,3.77-.04.08,0,.14-.06.14-.14,0-1.77,0-3.54,0-5.31,0-2.82,0-5.63,0-8.45,0-.59,0-1.19,0-1.78,1.29,0,2.58-.01,3.87-.02Z"/>
  <path class="st0" d="M59.51,67.48c-.96,0-1.93,0-2.89,0-1.55,0-3.09,0-4.64,0h-1.06c-.08,0-.14.06-.14.14.01,1.07.02,2.15.03,3.22,0,.04.01.07.03.09,0,0,0,0,0,.01,0,0,0,0,0,0,.02.02.05.04.09.04,1.58.02,3.15.03,4.73.05.16,0,.33,0,.49,0-.23.93-.65,1.8-1.32,2.48-.65.67-1.49,1.12-2.38,1.36-1.88.5-4.05.19-5.54-1.12-1.55-1.37-2.24-3.51-2.05-5.54.2-2.09,1.37-4.2,3.36-5.06,1.16-.5,2.48-.66,3.71-.4,1.25.26,2.34.95,3.18,1.9.04.04.12.06.17.02,1.03-.69,2.05-1.37,3.08-2.06.08-.06.09-.15.03-.22-1.09-1.38-2.54-2.42-4.2-3-1.58-.55-3.32-.72-4.97-.5-2.96.4-5.59,2.14-7.07,4.73-1.52,2.65-1.78,5.98-.76,8.85.98,2.75,3.13,4.97,5.89,5.95,2.96,1.05,6.75.75,9.02-1.6.21-.22.4-.46.58-.71.16.8.32,1.6.49,2.4.01.06.08.11.14.1.67,0,1.33-.01,2-.02.08,0,.14-.06.14-.14,0-1.22,0-2.44,0-3.65,0-1.94,0-3.88,0-5.83,0-.45,0-.89,0-1.34,0-.08-.07-.14-.14-.14Z"/>
  <path class="st0" d="M35.23,52.67c1.3-.98,2.05-2.45,1.97-4.11-.07-1.36-.58-2.7-1.65-3.57-.96-.79-2.19-1.16-3.4-1.36-1.37-.22-2.77-.24-4.15-.22-1.42.02-2.84.12-4.25.04-.08,0-.14.07-.14.14,0,.64,0,1.27,0,1.91,0,1.53,0,3.05,0,4.58,0,1.85,0,3.69,0,5.54,0,1.6,0,3.2,0,4.8v1.59c0,.25-.02.5,0,.75,0,.01,0,.02,0,.03,0,.07.07.15.14.14,1.38-.1,2.77-.01,4.14.03,1.52.04,3.06.07,4.57-.14,1.33-.18,2.69-.55,3.75-1.41,1.17-.95,1.68-2.39,1.75-3.86.05-1-.14-2.01-.63-2.89-.48-.87-1.23-1.54-2.1-1.99ZM27.65,59.42c0-1.41,0-2.83,0-4.24,0-.16,0-.32,0-.48,1.07,0,2.14.02,3.21.03.55,0,1.11-.02,1.63.2.93.38,1.45,1.3,1.36,2.29-.05.51-.25,1.02-.6,1.4-.39.43-.93.66-1.5.71-1.37.09-2.73.08-4.1.09ZM30.9,47.01c.91.03,1.81.5,2.12,1.4.28.79.08,1.78-.52,2.37-.32.32-.74.5-1.19.56-.18.02-.36.02-.54.03-.6.01-1.2.03-1.8.04-.44,0-.88.02-1.32.03,0-1.35,0-2.7,0-4.05,0-.15,0-.3,0-.45.94.02,1.89.04,2.83.07.14,0,.28,0,.42,0Z"/>
</svg>