<?xml version="1.0" encoding="UTF-8"?>
<svg id="Layer_1" xmlns="http://www.w3.org/2000/svg" version="1.1" viewBox="0 0 160 160">
  <!-- Generator: Adobe Illustrator 30.2.1, SVG Export Plug-In . SVG Version: 2.1.1 Build 1)  -->
  <defs>
    <style>
      .st0 {
        fill: #0d3023;
      }
    </style>
  </defs>
  <path class="st0" d="M156.78,133.41l-.94-1.19c-15.78-23.77-23.75-61.96-23.83-62.34l-.12-.57c-.01-.05-.05-.09-.09-.11l-.54-.22c-30.48-12.12-50.2-25.3-62.06-41.5l-.82-1.11s-.07-.06-.12-.06c-.05,0-.09.02-.12.06l-.89,1.05c-10.6,12.55-27.71,24.1-39.97,29.97l-.51.25s-.08.07-.09.12l-.09.56c-.78,4.83-8.01,47.93-22.65,73.99l-.72,1.17s-.03.11,0,.16c.03.05.08.08.13.08h0l2.61-.11c.05,0,.1-.03.13-.08,6.08-10.81,11.59-25.66,16.4-44.12,3.75-14.4,5.86-26.54,6.44-30.05,14.63-7.11,29.62-18.27,39.19-29.15,12.16,15.92,31.75,28.91,61.6,40.85.96,4.39,9.07,39.98,24.06,62.56.03.04.08.07.13.07h2.75c.06,0,.11-.03.14-.09.03-.05.02-.12-.02-.16Z"/>
  <path class="st0" d="M98.1,116.68c-1.09-.34-2.27-.4-3.38-.11-1.01.27-1.92.84-2.63,1.59-.05-.42-.09-.84-.14-1.26,0-.08-.06-.16-.16-.16-1.24.02-2.48.05-3.72.07-.08,0-.16.07-.16.16,0,1.7,0,14.44,0,15.06,0,.08.07.16.16.16,1.26,0,2.53-.01,3.79-.02.08,0,.15-.07.16-.16.03-2.42.09-8.29.1-8.81,0-.5.04-.97.3-1.42,1-1.71,4.13-1.96,5.08-.07.16.32.21.67.23,1.02.03.44.09,7.49.12,9.28,0,.08.07.16.16.16,1.27,0,2.55,0,3.82,0,.08,0,.16-.07.16-.16-.02-1.79-.07-10.2-.16-10.85-.28-2.04-1.77-3.86-3.73-4.49Z"/>
  <path class="st0" d="M71.98,114.93c0-1.26-.02-2.52-.03-3.78,0-.08-.07-.16-.16-.16h-14.03c-.07,0-.16.06-.16.16,0,1.26-.02,2.51-.03,3.77,0,.08.07.15.16.16l4.84.05v16.92c.01.08.08.16.17.16,1.37-.01,2.73-.03,4.1-.04.08,0,.16-.07.16-.16v-16.89s4.83-.02,4.83-.02c.08,0,.16-.07.16-.16Z"/>
  <path class="st0" d="M113.3,128.41c-.57.02-1.17.06-1.74-.06-.22-.05-.44-.12-.63-.23-.22-.14-.35-.39-.45-.63-.21-.5-.22-6.9-.22-6.9l3.09-.05c.08,0,.16-.07.16-.16l-.02-3.46c0-.08-.07-.16-.16-.16-1.02,0-3.07,0-3.07,0v-3.01c0-.08-.07-.16-.15-.16h-3.78c-.08,0-.15.07-.16.16l-.03,2.97s-1.33.05-1.99.07c-.08,0-.16.07-.16.16v3.41c0,.09.08.15.16.16l1.98.08s.04,5.83.05,6.45c.02,1.48.59,3.02,1.7,4.03,1.47,1.33,3.67,1.61,5.52,1.05.06-.02.12-.08.11-.15l-.06-3.43c0-.12-.09-.16-.16-.16Z"/>
  <path class="st0" d="M82.68,117.9c-2.23-1.61-5.21-1.95-7.75-.91-2.39.98-4.17,3.11-4.68,5.65-.52,2.56,0,5.42,1.85,7.35,1.6,1.67,3.91,2.6,6.21,2.63,2.28.03,4.54-.83,6.15-2.45.21-.21.41-.43.59-.67.06-.08.06-.19-.03-.24-1.01-.61-2.02-1.23-3.03-1.84-.06-.04-.14-.02-.19.02-.51.52-1.11.95-1.8,1.19-.62.21-1.28.26-1.93.21-1.31-.12-2.47-.69-3.16-1.81,1.16-.28,10.21-2.51,10.66-2.62.07-.02.12-.08.11-.15-.04-2.45-1.01-4.86-3.01-6.35ZM74.56,123.77c-.04-1.31.7-2.5,1.88-3.1,1.07-.54,2.51-.61,3.56.01.61.36,1.03.94,1.34,1.57-.74.17-6.54,1.46-6.78,1.51Z"/>
  <path class="st0" d="M60.26,104.21c.18.87.35,1.74.53,2.61.01.07.09.11.15.11.72,0,1.45-.01,2.17-.02.08,0,.16-.07.16-.16v-11.76c0-.08-.06-.16-.15-.16l-9.35-.02c-.08,0-.16.07-.16.16.01,1.17.04,2.33.04,3.5,0,.09.07.16.16.16l5.67.06c-.25,1.01-.71,1.95-1.44,2.7-.71.72-1.62,1.22-2.59,1.48-2.04.55-4.4.21-6.02-1.21-1.69-1.49-2.44-3.82-2.23-6.03.21-2.27,1.49-4.57,3.65-5.5,1.26-.54,2.69-.72,4.03-.44,1.36.29,2.54,1.03,3.45,2.07.04.05.13.06.19.02l3.34-2.24c.09-.06.1-.16.03-.24-1.18-1.5-2.76-2.63-4.57-3.27-1.72-.6-3.61-.78-5.41-.54-3.21.43-6.07,2.33-7.69,5.14-1.65,2.88-1.94,6.5-.83,9.62,1.06,2.99,3.41,5.4,6.41,6.46,3.22,1.14,7.34.81,9.8-1.74.23-.24.44-.5.64-.77Z"/>
  <path class="st0" d="M92.66,99c-.04-2.45-1.01-4.86-3.01-6.35-2.23-1.61-5.21-1.95-7.75-.91-2.39.98-4.17,3.11-4.68,5.65-.52,2.56,0,5.42,1.85,7.35,1.6,1.67,3.91,2.6,6.21,2.63,2.28.03,4.54-.83,6.15-2.45.21-.21.41-.43.59-.67.06-.08.06-.19-.03-.24l-3.03-1.84c-.06-.04-.14-.02-.19.02-.51.52-1.11.95-1.8,1.19-.62.21-1.28.26-1.93.21-1.31-.12-2.47-.69-3.16-1.81l10.66-2.62c.07-.02.12-.08.11-.15ZM81.53,98.52c-.04-1.31.7-2.5,1.88-3.1,1.07-.54,2.51-.61,3.56.01.61.36,1.03.94,1.34,1.57-.74.17-6.54,1.46-6.78,1.51Z"/>
  <path class="st0" d="M109,104.25c.06-.08.06-.19-.03-.24l-3.03-1.84c-.06-.04-.14-.02-.19.02-.51.52-1.11.95-1.8,1.19-.62.21-1.28.26-1.93.21-1.31-.12-2.47-.69-3.16-1.81l10.66-2.62c.06-.02.12-.08.11-.15-.04-2.45-1.01-4.86-3.01-6.35-2.23-1.61-5.21-1.95-7.75-.91-2.39.98-4.17,3.11-4.68,5.65-.52,2.56,0,5.42,1.85,7.35,1.6,1.67,3.91,2.6,6.21,2.63,2.28.03,4.54-.83,6.15-2.45.21-.21.41-.43.59-.67ZM100.39,95.43c1.07-.54,2.51-.61,3.56.01.61.36,1.03.94,1.34,1.57-.74.17-6.54,1.46-6.78,1.51-.04-1.31.7-2.5,1.88-3.1Z"/>
  <path class="st0" d="M123.05,92.14c-1.44-1.03-3.42-1.28-5.09-.73-.9.3-1.69.82-2.34,1.5-.05-.42-.09-.84-.14-1.26,0-.08-.06-.16-.16-.16l-3.72.07c-.08,0-.16.07-.16.16v15.06c0,.08.08.16.16.16l3.79-.02c.08,0,.15-.07.16-.16l.1-8.81c0-.5.04-.97.3-1.42,1-1.71,4.13-1.96,5.08-.07.16.32.21.67.23,1.02l.12,9.28c0,.08.07.16.16.16h3.82c.08,0,.16-.07.16-.15l-.11-10.19c-.03-1.76-.94-3.42-2.37-4.44Z"/>
  <path class="st0" d="M72.91,91.86c-.76.41-1.41.99-1.98,1.64l-.08-1.84c0-.08-.07-.16-.16-.16h-3.79c-.08.01-.16.08-.16.17v15.09c0,.08.07.16.16.16h3.81c.08,0,.15-.07.16-.16l.07-7.58c0-.57.15-1.14.38-1.66.36-.8.94-1.44,1.78-1.75.83-.31,1.74-.25,2.6-.18.08,0,.15-.08.16-.16l.04-4.14c0-.08-.07-.16-.16-.16-.99.03-1.95.24-2.83.71Z"/>
  <path class="st0" d="M48.21,81.15c1.44-.2,2.92-.6,4.08-1.53,1.27-1.03,1.82-2.6,1.9-4.2.05-1.08-.15-2.19-.68-3.14-.52-.94-1.34-1.67-2.28-2.17,1.42-1.06,2.23-2.66,2.14-4.46-.08-1.47-.63-2.93-1.79-3.88-1.04-.86-2.38-1.26-3.69-1.48-1.49-.24-3.01-.27-4.51-.24l-4.62.05c-.08,0-.16.08-.16.16v20.83s0,.02,0,.04c0,.08.07.16.16.16l4.5.03c1.66.05,3.32.07,4.97-.15ZM46.52,63.96c.99.03,1.97.54,2.31,1.52.3.86.09,1.93-.56,2.58-.35.34-.81.55-1.29.61-.19.03-3.98.1-3.98.1v-4.89s3.53.08,3.53.08ZM42.99,72.33l3.49.03c.6,0,1.2-.02,1.77.22,1.01.42,1.58,1.42,1.48,2.49-.05.56-.27,1.11-.65,1.53-.42.47-1.01.72-1.63.77l-4.46.09v-5.13Z"/>
  <path class="st0" d="M60.63,65.86h-3.82c-.07,0-.16.09-.16.16v15.1c0,.08.07.16.16.16l3.82-.02c.08,0,.16-.07.16-.16v-15.09c0-.08-.07-.16-.16-.16Z"/>
  <circle class="st0" cx="58.71" cy="61.78" r="2.16"/>
  <path class="st0" d="M79.07,65.88l-3.72-.02c-.09,0-.15.07-.16.16-.05.45-.1.9-.16,1.35-1.55-1.57-3.73-2.16-5.9-1.76-1.12.21-2.24.63-3.16,1.32-.86.64-1.56,1.48-2.06,2.43-1.06,2.03-1.19,4.51-.34,6.64.4,1.01,1,1.94,1.8,2.68.83.77,1.83,1.29,2.91,1.61,1.19.36,2.48.45,3.7.18,1.17-.26,2.21-.87,3.05-1.71.18,1.33-.08,2.84-1.1,3.76-1.19,1.08-3.07,1.31-4.59.95-.92-.22-1.77-.66-2.48-1.27-.05-.04-.13-.06-.19-.02-1.01.6-2.01,1.19-3.02,1.79-.09.06-.09.17-.03.24,1.08,1.35,2.59,2.25,4.25,2.69,1.64.44,3.48.53,5.15.21,2.96-.55,5.38-2.74,6.02-5.71.3-1.38.19-15.38.19-15.38,0-.1-.08-.16-.16-.16ZM71.08,76.88c-2.36,0-3.84-1.72-3.84-3.84s1.43-3.84,3.84-3.84,3.84,1.72,3.84,3.84-1.37,3.84-3.84,3.84Z"/>
</svg>